<svg xmlns="http://www.w3.org/2000/svg" viewBox="0 0 512 512" role="img" aria-labelledby="title description">
  <title id="title">kelner</title>
  <desc id="description">Ilustracja przedstawiająca kelnera w kamizelce, który trzyma tacę.</desc>
  <rect width="512" height="512" rx="48" fill="#f2fff6"/>
  <circle cx="84" cy="82" r="54" fill="#b7e4c7" opacity="0.72"/>
  <circle cx="438" cy="150" r="34" fill="#b7e4c7" opacity="0.48"/>
  <path d="M0 386 Q128 330 256 386 T512 386 V512 H0Z" fill="#b7e4c7" opacity="0.58"/>
  <circle cx="224" cy="168" r="44" fill="#d99a72" stroke="#624536" stroke-width="5"/>
  <path d="M184 159 Q191 111 228 116 Q266 117 267 162 Q243 143 211 144 Q197 144 184 159Z" fill="#4a342c"/>
  <circle cx="210" cy="170" r="4" fill="#2d2927"/><circle cx="238" cy="170" r="4" fill="#2d2927"/>
  <path d="M211 190 Q224 199 237 190" fill="none" stroke="#7d4039" stroke-width="4" stroke-linecap="round"/>
  <path d="M157 347 Q160 222 224 215 Q290 222 292 347Z" fill="#f8f5ee" stroke="#33433f" stroke-width="6"/>
  <path d="M177 227 L224 279 L271 227 L282 347 L166 347Z" fill="#33433f"/>
  <path d="M205 222 L224 248 L243 222" fill="#f8f5ee"/>
  <path d="M224 248 L214 263 L224 278 L234 263Z" fill="#b33f4b"/>
  <path d="M281 258 Q320 268 344 289" fill="none" stroke="#d99a72" stroke-width="18" stroke-linecap="round"/>
  <ellipse cx="358" cy="296" rx="76" ry="10" fill="#657b78" stroke="#33433f" stroke-width="5"/>
  <path d="M327 286 Q331 254 358 254 Q385 254 389 286Z" fill="#dce7e2" stroke="#657b78" stroke-width="5"/>
  <circle cx="358" cy="247" r="6" fill="#657b78"/>
  <rect x="48" y="400" width="416" height="76" rx="20" fill="#ffffff" opacity="0.9"/>
  <text x="256" y="451" fill="#174d45" font-family="Trebuchet MS, sans-serif" font-size="42" font-weight="700" text-anchor="middle">kelner</text>
</svg>
