<svg xmlns="http://www.w3.org/2000/svg" viewBox="0 0 512 512" role="img" aria-labelledby="title description">
  <title id="title">rura</title>
  <desc id="description">Ilustracja przedstawiająca metalową rurę z kolankiem.</desc>
  <rect width="512" height="512" rx="48" fill="#fff2ee"/>
  <circle cx="84" cy="82" r="54" fill="#ffb4a2" opacity="0.72"/>
  <circle cx="438" cy="150" r="34" fill="#ffb4a2" opacity="0.48"/>
  <path d="M0 386 Q128 330 256 386 T512 386 V512 H0Z" fill="#ffb4a2" opacity="0.58"/>
  <path d="M126 151 H263 V247 Q263 301 317 301 H396" fill="none" stroke="#536f7a" stroke-width="64" stroke-linejoin="round"/>
  <path d="M126 151 H263 V247 Q263 301 317 301 H396" fill="none" stroke="#91aab1" stroke-width="44" stroke-linejoin="round"/>
  <ellipse cx="126" cy="151" rx="22" ry="32" fill="#c7d7da" stroke="#405861" stroke-width="6"/>
  <ellipse cx="396" cy="301" rx="22" ry="32" fill="#c7d7da" stroke="#405861" stroke-width="6"/>
  <path d="M142 136 H246 M281 286 H380" stroke="#dce8e9" stroke-width="8" stroke-linecap="round" opacity="0.8"/>
  <path d="M232 151 H294 M263 120 V182 M365 270 V332" stroke="#405861" stroke-width="7" opacity="0.65"/>
  <rect x="48" y="400" width="416" height="76" rx="20" fill="#ffffff" opacity="0.9"/>
  <text x="256" y="451" fill="#5c2b29" font-family="Trebuchet MS, sans-serif" font-size="42" font-weight="700" text-anchor="middle">rura</text>
</svg>
